<svg width="349" height="348" xmlns="http://www.w3.org/2000/svg" xmlns:xlink="http://www.w3.org/1999/xlink" xml:space="preserve" overflow="hidden"><g transform="translate(-1397 -770)"><g><path d="M1398 843.171C1398 813.253 1422.25 789 1452.17 789L1677.83 789C1707.75 789 1732 813.253 1732 843.171L1732 1059.85C1732 1089.77 1707.75 1114.02 1677.83 1114.02L1452.17 1114.02C1422.25 1114.02 1398 1089.77 1398 1059.85Z" fill="#782371" fill-rule="evenodd" fill-opacity="1"/><path d="M1409 824.171C1409 794.253 1433.25 770 1463.17 770L1688.83 770C1718.75 770 1743 794.253 1743 824.171L1743 1040.85C1743 1070.77 1718.75 1095.02 1688.83 1095.02L1463.17 1095.02C1433.25 1095.02 1409 1070.77 1409 1040.85Z" fill="#E97132" fill-rule="evenodd" fill-opacity="1"/><path d="M1449.5 870.5 1565.56 870.5" stroke="#156082" stroke-width="22.9167" stroke-linecap="butt" stroke-linejoin="miter" stroke-miterlimit="8" stroke-opacity="1" fill="none" fill-rule="evenodd"/><path d="M1449.5 909.5 1526.87 909.5" stroke="#156082" stroke-width="22.9167" stroke-linecap="butt" stroke-linejoin="miter" stroke-miterlimit="8" stroke-opacity="1" fill="none" fill-rule="evenodd"/><path d="M1449.5 957.5 1507.53 957.5" stroke="#156082" stroke-width="22.9167" stroke-linecap="butt" stroke-linejoin="miter" stroke-miterlimit="8" stroke-opacity="1" fill="none" fill-rule="evenodd"/><path d="M1590 889.5C1590 861.61 1613.06 839 1641.5 839 1669.94 839 1693 861.61 1693 889.5 1693 917.391 1669.94 940 1641.5 940 1613.06 940 1590 917.391 1590 889.5Z" fill="#156082" fill-rule="evenodd" fill-opacity="1"/><path d="M1642.59 939C1685.53 939 1721.36 994.788 1729.64 1068.95L1730 1075.46 1729.45 1076.36C1717.81 1089.11 1701.74 1097 1683.98 1097L1554 1097 1555.54 1068.95C1563.83 994.788 1599.65 939 1642.59 939Z" fill="#156082" fill-rule="evenodd" fill-opacity="1"/></g></g></svg>