<svg width="344" height="349" xmlns="http://www.w3.org/2000/svg" xmlns:xlink="http://www.w3.org/1999/xlink" xml:space="preserve" overflow="hidden"><g transform="translate(-554 -265)"><g><path d="M712.738 292 727.181 306.22 727.653 305.503C735.779 297.16 747.005 292 759.405 292 784.206 292 804.311 312.641 804.311 338.104 804.311 344.469 803.054 350.534 800.782 356.049L791.753 369.798 874 450.778 818.058 507.246 823.116 510.747C831.243 519.09 836.269 530.616 836.269 543.347 836.269 568.81 816.164 589.451 791.363 589.451 778.963 589.451 767.737 584.291 759.611 575.948L755.778 570.112 716.262 610 691.675 585.793 705.899 575.947C714.025 567.604 719.051 556.079 719.051 543.347 719.051 517.885 698.946 497.243 674.146 497.243 655.546 497.243 639.586 508.854 632.77 525.401L632.375 527.406 555 451.222 587.078 418.843 587.864 422.842C594.681 439.389 610.64 450.999 629.241 451 654.041 451 674.146 430.359 674.146 404.896 674.146 385.799 662.837 369.415 646.72 362.416L643.616 361.772Z" fill="#782371" fill-rule="evenodd" fill-opacity="1"/><path d="M727.744 273.5 742.142 287.721 742.611 287.004C750.712 278.661 761.903 273.5 774.265 273.5 798.987 273.5 819.029 294.141 819.029 319.604 819.029 325.97 817.776 332.034 815.511 337.55L806.511 351.298 888.5 432.278 832.734 488.746 837.776 492.247C845.877 500.59 850.887 512.116 850.887 524.847 850.887 550.31 830.845 570.951 806.122 570.951 793.761 570.951 782.57 565.791 774.469 557.448L770.649 551.612 731.256 591.5 706.747 567.293 720.926 557.447C729.026 549.104 734.037 537.579 734.037 524.847 734.037 499.385 713.995 478.743 689.272 478.743 670.73 478.743 654.821 490.354 648.026 506.901L647.633 508.906 570.5 432.722 602.477 400.343 603.261 404.342C610.057 420.889 625.966 432.5 644.508 432.5 669.231 432.5 689.272 411.859 689.272 386.396 689.272 367.299 677.999 350.915 661.932 343.916L658.839 343.272Z" stroke="#D59C23" stroke-width="6.875" stroke-linecap="butt" stroke-linejoin="miter" stroke-miterlimit="8" stroke-opacity="1" fill="#D59C23" fill-rule="evenodd" fill-opacity="1"/></g></g></svg>