<svg width="252" height="394" xmlns="http://www.w3.org/2000/svg" xmlns:xlink="http://www.w3.org/1999/xlink" xml:space="preserve" overflow="hidden"><defs><clipPath id="clip0"><rect x="1054" y="233" width="252" height="394"/></clipPath><clipPath id="clip1"><rect x="1054" y="233" width="252" height="394"/></clipPath></defs><g clip-path="url(#clip0)" transform="translate(-1054 -233)"><g clip-path="url(#clip1)"><path d="M0 236.078 0 0 119.789 236.078Z" fill="#782371" fill-rule="evenodd" fill-opacity="1" transform="matrix(0.992018 0.126098 0.126098 -0.992018 1136.91 626.825)"/><path d="M0 236.078 0 0 119.789 236.078Z" fill="#782371" fill-rule="evenodd" fill-opacity="1" transform="matrix(-0.989108 -0.14719 -0.14719 0.989108 1211.21 238.076)"/><path d="M0 236.078 0 0 119.789 236.078Z" fill="#D59C23" fill-rule="evenodd" fill-opacity="1" transform="matrix(0.992018 0.126098 0.126098 -0.992018 1153.57 623.892)"/><path d="M0 236.078 0 0 119.789 236.078Z" fill="#D59C23" fill-rule="evenodd" fill-opacity="1" transform="matrix(-0.989108 -0.14719 -0.14719 0.989108 1227.87 235.142)"/></g></g></svg>